<svg 
 xmlns="http://www.w3.org/2000/svg"
 xmlns:xlink="http://www.w3.org/1999/xlink"
 width="40px" height="39px">
<path fill-rule="evenodd"  fill="rgb(254, 209, 54)"
 d="M35.860,16.331 L4.197,16.331 C2.296,16.331 0.755,14.790 0.755,12.889 C0.755,10.988 2.296,9.448 4.197,9.448 L8.091,9.448 C8.152,9.227 8.232,9.010 8.351,8.802 L12.481,1.648 C13.242,0.332 14.925,-0.120 16.242,0.641 C17.559,1.402 18.010,3.085 17.250,4.402 L14.337,9.448 L25.719,9.448 L22.806,4.402 C22.046,3.085 22.497,1.402 23.814,0.641 C25.131,-0.120 26.815,0.332 27.575,1.648 L31.705,8.802 C31.825,9.010 31.904,9.227 31.965,9.448 L35.860,9.448 C37.761,9.448 39.302,10.988 39.302,12.889 C39.302,14.790 37.761,16.331 35.860,16.331 ZM35.277,38.358 L4.779,38.358 L3.588,17.707 L36.469,17.707 L35.277,38.358 ZM13.145,24.591 C13.145,23.830 12.528,23.214 11.768,23.214 C11.008,23.214 10.392,23.830 10.392,24.591 L10.392,32.851 C10.392,33.611 11.008,34.228 11.768,34.228 C12.528,34.228 13.145,33.611 13.145,32.851 L13.145,24.591 ZM21.405,24.591 C21.405,23.830 20.789,23.214 20.028,23.214 C19.268,23.214 18.652,23.830 18.652,24.591 L18.652,32.851 C18.652,33.611 19.268,34.228 20.028,34.228 C20.789,34.228 21.405,33.611 21.405,32.851 L21.405,24.591 ZM29.665,24.591 C29.665,23.830 29.048,23.214 28.288,23.214 C27.528,23.214 26.911,23.830 26.911,24.591 L26.911,32.851 C26.911,33.611 27.528,34.228 28.288,34.228 C29.048,34.228 29.665,33.611 29.665,32.851 L29.665,24.591 Z"/>
</svg>