<svg 
 xmlns="http://www.w3.org/2000/svg"
 xmlns:xlink="http://www.w3.org/1999/xlink"
 width="41px" height="35px">
<path fill-rule="evenodd"  fill="rgb(254, 209, 54)"
 d="M36.954,34.534 L4.666,34.534 C3.180,34.534 0.630,33.329 0.630,31.843 C0.630,30.357 1.834,29.152 3.320,29.152 L38.300,29.152 C39.786,29.152 40.991,30.357 40.991,31.843 C40.991,33.329 38.440,34.534 36.954,34.534 ZM24.846,31.843 L16.774,31.843 C16.031,31.843 15.429,32.144 15.429,32.516 C15.429,32.887 16.031,33.188 16.774,33.188 L24.846,33.188 C25.589,33.188 26.192,32.887 26.192,32.516 C26.192,32.144 25.589,31.843 24.846,31.843 ZM15.565,14.781 L18.048,17.275 L26.050,9.237 C26.573,8.711 27.421,8.711 27.944,9.237 L29.839,11.139 C30.362,11.665 30.362,12.517 29.839,13.042 L19.421,23.506 C18.972,23.957 18.295,23.997 17.778,23.674 C17.338,23.784 16.856,23.689 16.512,23.343 L11.777,18.587 C11.254,18.061 11.254,17.210 11.777,16.684 L13.671,14.781 C14.194,14.256 15.042,14.256 15.565,14.781 ZM34.264,4.936 L7.356,4.936 L7.356,26.462 L3.320,26.462 L3.320,23.771 L3.568,23.771 C3.417,23.348 3.320,22.900 3.320,22.426 L3.320,4.936 C3.320,2.707 5.127,0.900 7.356,0.900 L34.264,0.900 C36.493,0.900 38.300,2.707 38.300,4.936 L38.300,22.426 C38.300,22.900 38.203,23.348 38.053,23.771 L38.300,23.771 L38.300,26.462 L34.264,26.462 L34.264,4.936 Z"/>
</svg>