<svg 
 xmlns="http://www.w3.org/2000/svg"
 xmlns:xlink="http://www.w3.org/1999/xlink"
 width="29px" height="38px">
<path fill-rule="evenodd"  fill="rgb(254, 209, 54)"
 d="M25.184,37.965 L4.185,37.965 C2.252,37.965 0.685,36.397 0.685,34.465 L0.685,21.632 C0.685,19.699 2.252,18.132 4.185,18.132 L5.352,18.132 L5.352,8.799 C5.352,4.289 9.530,0.633 14.685,0.633 C19.839,0.633 24.018,4.289 24.018,8.799 L24.018,18.132 L25.184,18.132 C27.117,18.132 28.684,19.699 28.684,21.632 L28.684,34.465 C28.684,36.397 27.117,37.965 25.184,37.965 ZM19.351,8.799 C19.351,6.867 17.262,5.299 14.685,5.299 C12.108,5.299 10.018,6.867 10.018,8.799 L10.018,16.965 C10.018,17.377 10.130,17.766 10.304,18.132 L19.065,18.132 C19.239,17.766 19.351,17.377 19.351,16.965 L19.351,8.799 ZM14.685,21.632 C12.108,21.632 10.018,23.722 10.018,26.298 C10.018,28.021 10.963,29.509 12.352,30.318 L12.352,32.131 C12.352,33.421 13.396,34.465 14.685,34.465 C15.974,34.465 17.018,33.421 17.018,32.131 L17.018,30.318 C18.407,29.509 19.351,28.021 19.351,26.298 C19.351,23.722 17.262,21.632 14.685,21.632 Z"/>
</svg>