<svg xmlns="http://www.w3.org/2000/svg" width="16" height="15.969" viewBox="0 0 16 15.969">
  <defs>
    <style>
      .cls-1 {
        fill: #fff;
        fill-rule: evenodd;
      }
    </style>
  </defs>
  <path class="cls-1" d="M210.617,772.149h-5.681l2.241-2.683a0.531,0.531,0,0,0,.1.02,0.666,0.666,0,1,0-.667-0.665,0.65,0.65,0,0,0,.046.225l-2.592,3.1h-0.244l-2.591-3.1a0.665,0.665,0,1,0-.622.44,0.494,0.494,0,0,0,.1-0.02l2.242,2.683h-5.681a1.332,1.332,0,0,0-1.333,1.33V782.8a1.332,1.332,0,0,0,1.333,1.331h13.342a1.332,1.332,0,0,0,1.333-1.331v-9.319A1.332,1.332,0,0,0,210.617,772.149Zm-2.669,9.317a1.333,1.333,0,0,1-1.334,1.332h-8a1.334,1.334,0,0,1-1.335-1.332v-6.655a1.333,1.333,0,0,1,1.335-1.332h8a1.333,1.333,0,0,1,1.334,1.332v6.655Zm1.966-5.948a0.951,0.951,0,1,1,.952-0.951A0.952,0.952,0,0,1,209.914,775.518Z" transform="translate(-195.938 -768.156)"/>
</svg>
