<svg xmlns="http://www.w3.org/2000/svg" width="15.969" height="15" viewBox="0 0 15.969 15">
  <defs>
    <style>
      .cls-1 {
        fill: #fff;
        fill-rule: evenodd;
      }
    </style>
  </defs>
  <path class="cls-1" d="M208.452,1490.72a0.157,0.157,0,0,0-.173-0.02l-15.674,7.93a0.171,0.171,0,0,0-.088.16,0.169,0.169,0,0,0,.112.14l4.961,1.56a0.149,0.149,0,0,0,.156-0.03l7.545-6.39-5.795,6.79a0.169,0.169,0,0,0-.032.15,0.178,0.178,0,0,0,.108.11l5.822,1.76h0.047a0.115,0.115,0,0,0,.08-0.02,0.161,0.161,0,0,0,.077-0.1l2.911-11.88A0.151,0.151,0,0,0,208.452,1490.72Zm-7.176,12.14-1.609-.49a0.147,0.147,0,0,0-.143.02,0.161,0.161,0,0,0-.066.13v3.01a0.156,0.156,0,0,0,.117.15c0.014,0,.029.01,0.045,0.01a0.162,0.162,0,0,0,.136-0.08l1.609-2.52A0.15,0.15,0,0,0,201.276,1502.86Z" transform="translate(-192.531 -1490.69)"/>
</svg>
