<svg xmlns="http://www.w3.org/2000/svg" width="11.657" height="15.967" viewBox="0 0 11.657 15.967">
  <defs>
    <style>
      .cls-1 {
        fill: #fff;
        fill-rule: evenodd;
      }
    </style>
  </defs>
  <path class="cls-1" d="M210.22,1012.01l-3.065-8.26v-2.44a1.464,1.464,0,0,0,.994-1.381v-0.4a1.473,1.473,0,0,0-1.479-1.466H202.3a1.474,1.474,0,0,0-1.479,1.466v0.4a1.462,1.462,0,0,0,1,1.381v2.44l-3.059,8.25a1.453,1.453,0,0,0,.142,1.37,1.5,1.5,0,0,0,1.228.65h8.722a1.5,1.5,0,0,0,1.227-.65A1.452,1.452,0,0,0,210.22,1012.01Zm-8.111-1.87a0.5,0.5,0,1,1,.5.5A0.5,0.5,0,0,1,202.109,1010.14Zm3.25,0.43a0.865,0.865,0,1,1-.871.87A0.87,0.87,0,0,1,205.359,1010.57Zm-0.742-1.89a0.628,0.628,0,0,1,1.256,0A0.628,0.628,0,0,1,204.617,1008.68Zm-1.828-4.76v-3.01l0-.48H202.3a0.5,0.5,0,0,1-.5-0.5v-0.4a0.5,0.5,0,0,1,.5-0.5h4.375a0.5,0.5,0,0,1,.5.5v0.4a0.506,0.506,0,0,1-.506.5h-0.489v3.49l0.859,2.31-0.034.03c-0.639.66-5.308,0.74-5.308,0.74h-0.045Zm1.353,1.87a0.685,0.685,0,0,0,.681-0.68,0.682,0.682,0,0,0-1.363,0A0.684,0.684,0,0,0,204.142,1005.79Z" transform="translate(-198.656 -998.063)"/>
</svg>
